<svg id="Layer_1" data-name="Layer 1" xmlns="http://www.w3.org/2000/svg" viewBox="0 0 668.61 216.48"><defs><style>.cls-1{fill:#fdfefe;}</style></defs><path class="cls-1" d="M35.75,129.73c-4.64,0-4.64-7.31,0-7.31h2.67V52H35.75c-4.64,0-4.64-7.3,0-7.3H68c12.52,0,23.78,10.09,23.78,23,0,12.65-11.14,18.1-11.14,18.1,8.82,3.13,16.24,10.09,16.47,20.3.47,12.18-10.55,23.89-23.31,23.66Zm10-46.16H67.42c10.2,0,17.16-7.2,17.16-15.9C84.58,58.74,76.46,52,67.76,52h-22Zm0,7.42v31.43H73.8c8.81-.46,16.12-7.07,16.12-15.89a15.39,15.39,0,0,0-4.76-11C80.29,91,73.56,91,67.3,91Z"/><path class="cls-1" d="M125.42,122.42h.92c4.76,0,4.76,7.31,0,7.31h-9.16c-4.76,0-4.76-7.31,0-7.31h.93V52h-.93c-4.76,0-4.76-7.3,0-7.3h9.16c4.76,0,4.76,7.3,0,7.3h-.92Z"/><path class="cls-1" d="M154,129.73c-4.29,0-4.29-7.31,0-7.31h1.63V52h-1.05c-4.64,0-4.64-7.3,0-7.3h9.28c4.64,0,4.64,7.3,0,7.3h-.93v70.41h37.7V120.8c0-4.64,7.31-4.64,7.31,0V126a3.46,3.46,0,0,1-3.48,3.71Z"/><path class="cls-1" d="M237.12,129.73c-4.64,0-4.64-7.31,0-7.31h2.09V52H215.9v1.63c0,4.64-7.31,4.64-7.31,0V48.42a3.5,3.5,0,0,1,3.59-3.71h61.48a3.46,3.46,0,0,1,3.48,3.71v5.22c0,4.64-7.31,4.64-7.31,0V52H246.52v70.41h2.09c4.75,0,4.75,7.31,0,7.31Z"/><path class="cls-1" d="M307.07,83.57c-5.68-5.8-10.21-11.26-10.21-19.61,0-10,8.35-19.25,18.56-19.25s18.68,6.84,18.68,18.9c0,10.1-9.05,15.66-16.82,21l20,23.2a33.76,33.76,0,0,0,3.13-14.5h-2.78c-2.32,0-3.48-1.39-3.48-3.25a3.19,3.19,0,0,1,3.48-3.36h11.13c2.44,0,3.6,1.5,3.6,3.36s-1.16,3.25-3.6,3.25h-2.32a42.64,42.64,0,0,1-4.64,20l7.78,9.16h4.75c4.76,0,4.76,7.31,0,7.31h-4.64c-.7,0-3,.23-5.45-2.67l-6.84-8c-5.92,7.66-14.85,10.67-22.62,10.67C303.24,129.73,290,123,290,108.5,290,96.67,297.91,89.6,307.07,83.57Zm7.66,39.2c5.45,0,13.8-1.39,18.55-8.81L311.71,88.2c-8,4.88-14.73,10.21-14.73,20.3C297,116.16,304.52,122.77,314.73,122.77ZM303.82,64c0,8.24,8.93,15.66,8.93,15.66s14.39-7.31,14.39-16-6-11.94-11.72-11.94A12.12,12.12,0,0,0,303.82,64Z"/><path class="cls-1" d="M380.15,129.73c-4.64,0-4.64-7.31,0-7.31h2.67V52h-2.67c-4.64,0-4.64-7.3,0-7.3H412.4c12.52,0,23.78,10.09,23.78,23,0,12.65-11.14,18.1-11.14,18.1,8.82,3.13,16.24,10.09,16.47,20.3C442,118.25,431,130,418.2,129.73Zm10-46.16h21.7c10.21,0,17.16-7.2,17.16-15.9C429,58.74,420.86,52,412.16,52h-22Zm0,7.42v31.43H418.2c8.81-.46,16.12-7.07,16.12-15.89a15.43,15.43,0,0,0-4.76-11C424.69,91,418,91,411.7,91Z"/><path class="cls-1" d="M473,106.42l-6.27,16h.58c4.64,0,4.64,7.31,0,7.31H457.4c-4.64,0-4.64-7.31,0-7.31h1.51L486.29,52c-3.83-.81-3.6-7.3.81-7.3h9.16c4.41,0,4.76,6.49.82,7.3l27.49,70.41H526c4.64,0,4.64,7.31,0,7.31h-9.75c-4.75,0-4.75-7.31,0-7.31h.47l-6.26-16Zm2.9-7.31h31.78L491.74,58.28Z"/><path class="cls-1" d="M545.45,87.28c0,18.9,15.19,36,34.33,35.26,9.28,0,17.4-4.18,23.9-10.67a3.57,3.57,0,1,1,5.1,5,39.73,39.73,0,0,1-29.23,12.87c-23,0-41.29-19.25-41.29-42.45s19.25-42.57,41.41-42.57c8.12,0,17.4,3.48,20.76,8.46l-.12-5.1c0-2.32,1.74-3.25,3.48-3.25s3.6.93,3.6,3.25V65c0,1.85-.93,3.82-3.25,3.82a3.14,3.14,0,0,1-3.25-3.13v-.93c-.11-5.91-6.61-12.87-21.22-12.87C561.11,51.9,545.45,68,545.45,87.28Z"/><path class="cls-1" d="M634.77,125.21a4.58,4.58,0,1,1-4.64-4.76A4.76,4.76,0,0,1,634.77,125.21Z"/><path class="cls-1" d="M172.51,170.89a7.38,7.38,0,0,1-5.32,2.08c-5.21,0-7.41-3.58-7.43-7.22a7,7,0,0,1,7.43-7.38,7.22,7.22,0,0,1,5.14,2.14l-1.76,1.7a4.81,4.81,0,0,0-3.38-1.32,4.6,4.6,0,0,0-4.83,4.86,4.5,4.5,0,0,0,4.83,4.74,5.15,5.15,0,0,0,3.52-1.42Z"/><path class="cls-1" d="M197.35,165.73c0,3.62-2.26,7.24-7.18,7.24s-7.21-3.54-7.21-7.22,2.36-7.38,7.21-7.38S197.39,162.07,197.35,165.73Zm-11.79.06c.06,2.3,1.3,4.76,4.61,4.76s4.54-2.48,4.58-4.78-1.28-5-4.58-5S185.5,163.43,185.56,165.79Z"/><path class="cls-1" d="M218.09,158.63h2.64v14h-1.64v0l-7.37-9.46v9.44h-2.64v-14h2.14l6.87,8.68Z"/><path class="cls-1" d="M241.6,162a4,4,0,0,0-3.32-1.56c-2,0-2.9.82-2.9,1.86,0,1.22,1.44,1.56,3.12,1.76,2.92.36,5.65,1.12,5.65,4.46,0,3.12-2.77,4.46-5.89,4.46-2.86,0-5.06-.88-6.1-3.44l2.2-1.14a4,4,0,0,0,3.94,2.22c1.66,0,3.22-.58,3.22-2.1,0-1.32-1.38-1.86-3.24-2.06-2.86-.34-5.5-1.1-5.5-4.24,0-2.88,2.84-4.06,5.42-4.08,2.18,0,4.44.62,5.51,2.78Z"/><path class="cls-1" d="M268.07,158.67v8c0,4.14-2.55,6.26-6.07,6.26-3.36,0-6.22-2-6.22-6.26v-8h2.62v8c0,2.52,1.44,3.86,3.62,3.86s3.42-1.46,3.42-3.86v-8Z"/><path class="cls-1" d="M282.88,158.65v11.56h7.2v2.44h-9.84v-14Z"/><path class="cls-1" d="M303.08,161.05h-4.44v-2.4h11.53v2.4h-4.45v11.6h-2.64Z"/><path class="cls-1" d="M321.38,172.65v-14H324v14Z"/><path class="cls-1" d="M345.28,158.63h2.65v14h-1.65v0l-7.36-9.46v9.44h-2.64v-14h2.14l6.86,8.68Z"/><path class="cls-1" d="M370.34,162.07a5.36,5.36,0,0,0-3.56-1.4c-3,0-4.82,2.28-4.82,5.16a4.43,4.43,0,0,0,4.82,4.68,4.65,4.65,0,0,0,3.16-1.12v-2.48h-3.58v-2.36h6v5.9a7,7,0,0,1-5.58,2.52c-5.26,0-7.4-3.46-7.4-7.14,0-3.94,2.46-7.58,7.4-7.58a7.39,7.39,0,0,1,5.2,2.14Z"/><path class="cls-1" d="M408.16,162.07a5.36,5.36,0,0,0-3.56-1.4c-3,0-4.82,2.28-4.82,5.16a4.43,4.43,0,0,0,4.82,4.68,4.65,4.65,0,0,0,3.16-1.12v-2.48h-3.58v-2.36h6v5.9A7,7,0,0,1,404.6,173c-5.26,0-7.4-3.46-7.4-7.14,0-3.94,2.46-7.58,7.4-7.58a7.39,7.39,0,0,1,5.2,2.14Z"/><path class="cls-1" d="M434.16,172.65H431L426.94,168H424.4v4.68h-2.64v-14l6.66,0c3.3,0,5,2.22,5,4.64a4.15,4.15,0,0,1-3.54,4.4l4.24,4.78Zm-9.76-11.54v4.48h4a2.25,2.25,0,1,0,0-4.48Z"/><path class="cls-1" d="M458.61,165.73c-.05,3.62-2.27,7.24-7.19,7.24s-7.2-3.54-7.2-7.22,2.36-7.38,7.2-7.38S458.64,162.07,458.61,165.73Zm-11.79.06c.06,2.3,1.3,4.76,4.6,4.76s4.54-2.48,4.58-4.78-1.28-5-4.58-5S446.76,163.43,446.82,165.79Z"/><path class="cls-1" d="M482.42,158.67v8c0,4.14-2.54,6.26-6.06,6.26-3.36,0-6.22-2-6.22-6.26v-8h2.62v8c0,2.52,1.44,3.86,3.62,3.86s3.42-1.46,3.42-3.86v-8Z"/><path class="cls-1" d="M501.2,168.53h-4v4.12H494.6v-14l6.6,0A5,5,0,1,1,501.2,168.53Zm-4-2.42h4a2.48,2.48,0,1,0,0-5h-4Z"/></svg>